# xmcd CD database file
#
# Track frame offsets:
#	150
#	15747
#	38745
#	58355
#	80740
#	97352
#	135340
#	159192
#	177290
#	189342
#	217507
#	235815
#	260580
#
# Disc length: 3769 seconds
#
# Revision: 0
# Processed by: cddbd v1.5.2PL0 Copyright (c) Steve Scherf et al.
# Submitted via: CDex 1.70beta2
#
DISCID=a90eb70d
DTITLE=The Taverners Big Band - A Night in the Tavern
DYEAR=1998
DGENRE=Jazz
TTITLE0=Sweet Georgia Brown
TTITLE1=Senorita Blues
TTITLE2=A Night in Tunisia
TTITLE3=Marguarite
TTITLE4=Ya Gotta Try
TTITLE5=Feel So Good
TTITLE6=If I Could
TTITLE7=El Gatotriste
TTITLE8=Basie, Straight Ahead
TTITLE9=Copacabana
TTITLE10=The Little Prince
TTITLE11=Miss Prankhurst Protests
TTITLE12=Engine No 9
EXTD=YEAR: 1998
EXTT0=
EXTT1=
EXTT2=
EXTT3=
EXTT4=
EXTT5=
EXTT6=
EXTT7=
EXTT8=
EXTT9=
EXTT10=
EXTT11=
EXTT12=
PLAYORDER=
